<svg xmlns="http://www.w3.org/2000/svg" width="160" height="449" fill="none" viewBox="0 0 160 449"><path fill="#fff" d="M98.0535 14.2036L97.0535 14.2011L97.0517 14.9438L97.7621 15.1602L98.0535 14.2036ZM98.0845 1.41951L98.4003 0.470668L97.0879 0.0339402L97.0845 1.41708L98.0845 1.41951ZM141.686 15.9289L142.686 15.9313L142.688 15.2083L142.002 14.98L141.686 15.9289ZM141.646 32.122L141.958 33.0724L142.645 32.8474L142.646 32.1244L141.646 32.122ZM97.9752 46.4194L96.9752 46.417L96.9719 47.8001L98.2863 47.3697L97.9752 46.4194ZM98.0063 33.6353L97.7196 32.6773L97.0081 32.8902L97.0063 33.6329L98.0063 33.6353ZM129.649 24.1667L129.935 25.1247L130.647 24.9118L130.649 24.1691L129.649 24.1667ZM129.65 23.8258L130.649 23.8282L130.651 23.0855L129.941 22.8692L129.65 23.8258ZM115.275 11.859L116.275 11.8615L116.278 10.8615L115.278 10.859L115.275 11.859ZM115.217 35.893L115.214 36.893L116.214 36.8955L116.217 35.8955L115.217 35.893ZM106.353 35.8715L105.353 35.8691L105.351 36.8691L106.351 36.8715L106.353 35.8715ZM106.412 11.8375L106.414 10.8375L105.414 10.8351L105.412 11.8351L106.412 11.8375ZM99.0535 14.206L99.0845 1.42194L97.0845 1.41708L97.0535 14.2011L99.0535 14.206ZM97.7688 2.36835L141.37 16.8777L142.002 14.98L98.4003 0.470668L97.7688 2.36835ZM140.686 15.9264L140.646 32.1196L142.646 32.1244L142.686 15.9313L140.686 15.9264ZM141.335 31.1716L97.6641 45.469L98.2863 47.3697L141.958 33.0724L141.335 31.1716ZM98.9752 46.4218L99.0063 33.6378L97.0063 33.6329L96.9752 46.417L98.9752 46.4218ZM98.2929 34.5934L129.935 25.1247L129.362 23.2087L97.7196 32.6773L98.2929 34.5934ZM130.649 24.1691L130.649 23.8282L128.65 23.8234L128.649 24.1643L130.649 24.1691ZM129.941 22.8692L98.3448 13.2469L97.7621 15.1602L129.358 24.7824L129.941 22.8692ZM114.275 11.8566L114.217 35.8906L116.217 35.8955L116.275 11.8615L114.275 11.8566ZM115.219 34.893L106.356 34.8715L106.351 36.8715L115.214 36.893L115.219 34.893ZM107.353 35.8739L107.412 11.8399L105.412 11.8351L105.353 35.8691L107.353 35.8739ZM106.409 12.8375L115.273 12.859L115.278 10.859L106.414 10.8375L106.409 12.8375ZM97.9614 52.1221L97.9638 51.1221L96.9638 51.1197L96.9614 52.1197L97.9614 52.1221ZM141.598 52.2281L142.598 52.2305L142.6 51.2306L141.6 51.2281L141.598 52.2281ZM134.657 85.2156L135.175 86.071L135.175 86.071L134.657 85.2156ZM118.783 85.1131L119.33 84.2756L119.326 84.2731L118.783 85.1131ZM113.939 79.2846L114.857 78.886L114.856 78.8841L113.939 79.2846ZM112.347 59.3162L112.35 58.3162L111.35 58.3138L111.347 59.3138L112.347 59.3162ZM121.552 59.3385L122.552 59.341L122.554 58.341L121.554 58.3385L121.552 59.3385ZM122.033 71.7616L121.088 72.0879L121.09 72.0957L122.033 71.7616ZM123.711 74.0455L124.288 73.2291L124.278 73.222L123.711 74.0455ZM129.762 74.0602L129.213 73.2246L129.204 73.2303L129.195 73.2361L129.762 74.0602ZM131.515 71.7847L130.584 71.418L130.581 71.4261L130.578 71.4342L131.515 71.7847ZM132.109 64.0517L133.109 64.0541L133.111 63.0541L132.111 63.0517L132.109 64.0517ZM97.9326 63.9687L96.9326 63.9663L96.9302 64.9663L97.9302 64.9687L97.9326 63.9687ZM117.928 77.7389L118.404 78.6182L118.926 78.3354L118.928 77.7413L117.928 77.7389ZM97.8728 88.5993L96.8728 88.5969L96.8687 90.2803L98.349 89.4786L97.8728 88.5993ZM97.904 75.73L97.4366 74.846L96.9055 75.1268L96.904 75.7276L97.904 75.73ZM117.958 65.1253L118.958 65.1277L118.962 63.4631L117.491 64.2413L117.958 65.1253ZM97.9589 53.1221L141.595 53.2281L141.6 51.2281L97.9638 51.1221L97.9589 53.1221ZM140.598 52.2257L140.552 71.0609L142.552 71.0657L142.598 52.2305L140.598 52.2257ZM140.552 71.0609C140.544 74.178 139.971 76.8558 138.864 79.1215L140.661 79.9992C141.925 77.4127 142.544 74.4258 142.552 71.0657L140.552 71.0609ZM138.864 79.1215C137.76 81.3826 136.187 83.1198 134.139 84.3603L135.175 86.071C137.565 84.6233 139.396 82.5904 140.661 79.9992L138.864 79.1215ZM134.139 84.3603C132.104 85.5923 129.634 86.2276 126.685 86.2204L126.681 88.2204C129.925 88.2283 132.771 87.527 135.175 86.071L134.139 84.3603ZM126.685 86.2204C123.71 86.2132 121.277 85.546 119.33 84.2756L118.237 85.9506C120.573 87.4748 123.406 88.2124 126.681 88.2204L126.685 86.2204ZM119.326 84.2731C117.362 83.0047 115.871 81.2212 114.857 78.886L113.022 79.6832C114.183 82.3534 115.922 84.4555 118.241 85.9532L119.326 84.2731ZM114.856 78.8841C113.835 76.5478 113.312 73.7841 113.32 70.5686L111.32 70.5637C111.312 73.996 111.869 77.0445 113.023 79.6851L114.856 78.8841ZM113.32 70.5686L113.347 59.3186L111.347 59.3138L111.32 70.5637L113.32 70.5686ZM112.345 60.3162L121.549 60.3385L121.554 58.3385L112.35 58.3162L112.345 60.3162ZM120.552 59.3361L120.53 68.1997L122.53 68.2046L122.552 59.341L120.552 59.3361ZM120.53 68.1997C120.527 69.6679 120.703 70.972 121.088 72.0879L122.978 71.4354C122.686 70.5894 122.527 69.5205 122.53 68.2046L120.53 68.1997ZM121.09 72.0957C121.504 73.2615 122.181 74.2063 123.144 74.8691L124.278 73.222C123.709 72.8299 123.268 72.2522 122.976 71.4276L121.09 72.0957ZM123.133 74.8619C124.113 75.5552 125.334 75.8591 126.711 75.8625L126.715 73.8625C125.621 73.8598 124.84 73.6192 124.288 73.2291L123.133 74.8619ZM126.711 75.8625C128.1 75.8659 129.333 75.5686 130.328 74.8843L129.195 73.2361C128.626 73.6276 127.826 73.8652 126.715 73.8625L126.711 75.8625ZM130.311 74.8959C131.305 74.2427 132.014 73.3038 132.451 72.1351L130.578 71.4342C130.272 72.2523 129.812 72.8305 129.213 73.2246L130.311 74.8959ZM132.445 72.1513C132.889 71.0253 133.095 69.709 133.098 68.2303L131.098 68.2254C131.095 69.5308 130.912 70.5856 130.584 71.418L132.445 72.1513ZM133.098 68.2303L133.109 64.0541L131.109 64.0493L131.098 68.2254L133.098 68.2303ZM132.111 63.0517L97.935 62.9687L97.9302 64.9687L132.106 65.0517L132.111 63.0517ZM98.9326 63.9711L98.9614 52.1246L96.9614 52.1197L96.9326 63.9663L98.9326 63.9711ZM117.451 76.8595L97.3966 87.72L98.349 89.4786L118.404 78.6182L117.451 76.8595ZM98.8728 88.6017L98.904 75.7324L96.904 75.7276L96.8728 88.5969L98.8728 88.6017ZM98.3715 76.614L118.426 66.0093L117.491 64.2413L97.4366 74.846L98.3715 76.614ZM116.958 65.1229L116.928 77.7365L118.928 77.7413L118.958 65.1277L116.958 65.1229ZM97.8604 93.7001L97.8628 92.7001L96.8628 92.6977L96.8604 93.6977L97.8604 93.7001ZM141.497 93.8061L142.497 93.8086L142.499 92.8086L141.499 92.8061L141.497 93.8061ZM141.42 125.255L141.418 126.255L142.418 126.257L142.42 125.257L141.42 125.255ZM131.875 125.232L130.875 125.229L130.872 126.229L131.872 126.232L131.875 125.232ZM131.922 105.629L132.922 105.632L132.925 104.632L131.925 104.629L131.922 105.629ZM124.422 105.611L124.425 104.611L123.425 104.609L123.422 105.609L124.422 105.611ZM124.379 123.594L124.376 124.594L125.376 124.597L125.379 123.597L124.379 123.594ZM114.833 123.571L113.833 123.569L113.831 124.569L114.831 124.571L114.833 123.571ZM114.877 105.588L115.877 105.591L115.879 104.591L114.879 104.588L114.877 105.588ZM107.377 105.57L107.379 104.57L106.379 104.567L106.377 105.567L107.377 105.57ZM107.33 125.087L107.327 126.087L108.327 126.089L108.33 125.089L107.33 125.087ZM97.7842 125.064L96.7842 125.061L96.7818 126.061L97.7818 126.064L97.7842 125.064ZM97.8579 94.7001L141.494 94.8061L141.499 92.8061L97.8628 92.7001L97.8579 94.7001ZM140.497 93.8037L140.42 125.252L142.42 125.257L142.497 93.8086L140.497 93.8037ZM141.423 124.255L131.877 124.232L131.872 126.232L141.418 126.255L141.423 124.255ZM132.875 125.234L132.922 105.632L130.922 105.627L130.875 125.229L132.875 125.234ZM131.925 104.629L124.425 104.611L124.42 106.611L131.92 106.629L131.925 104.629ZM123.422 105.609L123.379 123.592L125.379 123.597L125.422 105.614L123.422 105.609ZM124.381 122.594L114.836 122.571L114.831 124.571L124.376 124.594L124.381 122.594ZM115.833 123.573L115.877 105.591L113.877 105.586L113.833 123.569L115.833 123.573ZM114.879 104.588L107.379 104.57L107.375 106.57L114.875 106.588L114.879 104.588ZM106.377 105.567L106.33 125.084L108.33 125.089L108.377 105.572L106.377 105.567ZM107.332 124.087L97.7866 124.064L97.7818 126.064L107.327 126.087L107.332 124.087ZM98.7842 125.066L98.8604 93.7026L96.8604 93.6977L96.7842 125.061L98.7842 125.066ZM97.7385 143.859L96.7385 143.857L96.7367 144.6L97.4472 144.816L97.7385 143.859ZM97.7696 131.075L98.0853 130.127L96.773 129.69L96.7696 131.073L97.7696 131.075ZM141.371 145.585L142.371 145.587L142.373 144.864L141.687 144.636L141.371 145.585ZM141.332 161.778L141.643 162.728L142.33 162.503L142.332 161.78L141.332 161.778ZM97.6603 176.075L96.6603 176.073L96.6569 177.456L97.9714 177.026L97.6603 176.075ZM97.6913 163.291L97.4047 162.333L96.6932 162.546L96.6913 163.289L97.6913 163.291ZM129.334 153.823L129.62 154.781L130.332 154.568L130.334 153.825L129.334 153.823ZM129.335 153.482L130.335 153.484L130.336 152.741L129.626 152.525L129.335 153.482ZM114.96 141.515L115.96 141.517L115.963 140.517L114.963 140.515L114.96 141.515ZM114.902 165.549L114.899 166.549L115.899 166.551L115.902 165.551L114.902 165.549ZM106.038 165.527L105.038 165.525L105.036 166.525L106.036 166.527L106.038 165.527ZM106.097 141.493L106.099 140.493L105.099 140.491L105.097 141.491L106.097 141.493ZM98.7385 143.862L98.7696 131.078L96.7696 131.073L96.7385 143.857L98.7385 143.862ZM97.4538 132.024L141.055 146.534L141.687 144.636L98.0853 130.127L97.4538 132.024ZM140.371 145.582L140.332 161.775L142.332 161.78L142.371 145.587L140.371 145.582ZM141.02 160.828L97.3492 175.125L97.9714 177.026L141.643 162.728L141.02 160.828ZM98.6603 176.078L98.6913 163.294L96.6913 163.289L96.6603 176.073L98.6603 176.078ZM97.978 164.249L129.62 154.781L129.047 152.865L97.4047 162.333L97.978 164.249ZM130.334 153.825L130.335 153.484L128.335 153.479L128.334 153.82L130.334 153.825ZM129.626 152.525L98.0299 142.903L97.4472 144.816L129.043 154.438L129.626 152.525ZM113.96 141.512L113.902 165.546L115.902 165.551L115.96 141.517L113.96 141.512ZM114.904 164.549L106.041 164.527L106.036 166.527L114.899 166.549L114.904 164.549ZM107.038 165.53L107.097 141.496L105.097 141.491L105.038 165.525L107.038 165.53ZM106.094 142.493L114.958 142.515L114.963 140.515L106.099 140.493L106.094 142.493Z"/><path fill="#fff" d="M23.6902 163.688L23.6927 162.688L22.6927 162.686L22.6902 163.686L23.6902 163.688ZM67.3265 163.794L68.3265 163.797L68.3289 162.797L67.3289 162.794L67.3265 163.794ZM67.252 194.476L67.2495 195.476L68.2495 195.478L68.252 194.478L67.252 194.476ZM57.7065 194.453L56.7065 194.45L56.7041 195.45L57.7041 195.453L57.7065 194.453ZM57.7523 175.617L58.7523 175.62L58.7547 174.62L57.7547 174.617L57.7523 175.617ZM50.2523 175.599L50.2547 174.599L49.2547 174.597L49.2523 175.597L50.2523 175.599ZM50.2111 192.559L50.2087 193.559L51.2087 193.562L51.2111 192.562L50.2111 192.559ZM40.6657 192.536L39.6657 192.534L39.6633 193.534L40.6633 193.536L40.6657 192.536ZM40.7069 175.576L41.7069 175.579L41.7093 174.579L40.7093 174.576L40.7069 175.576ZM23.6615 175.535L22.6615 175.532L22.659 176.532L23.659 176.535L23.6615 175.535ZM23.6878 164.688L67.3241 164.794L67.3289 162.794L23.6927 162.688L23.6878 164.688ZM66.3265 163.792L66.252 194.473L68.252 194.478L68.3265 163.797L66.3265 163.792ZM67.2544 193.476L57.709 193.453L57.7041 195.453L67.2495 195.476L67.2544 193.476ZM58.7065 194.455L58.7523 175.62L56.7523 175.615L56.7065 194.45L58.7065 194.455ZM57.7547 174.617L50.2547 174.599L50.2499 176.599L57.7499 176.617L57.7547 174.617ZM49.2523 175.597L49.2111 192.557L51.2111 192.562L51.2523 175.602L49.2523 175.597ZM50.2135 191.559L40.6681 191.536L40.6633 193.536L50.2087 193.559L50.2135 191.559ZM41.6657 192.539L41.7069 175.579L39.7069 175.574L39.6657 192.534L41.6657 192.539ZM40.7093 174.576L23.6639 174.535L23.659 176.535L40.7044 176.576L40.7093 174.576ZM24.6615 175.537L24.6902 163.691L22.6902 163.686L22.6615 175.532L24.6615 175.537ZM67.209 212.18L67.2065 213.18L68.2065 213.182L68.209 212.182L67.209 212.18ZM23.5727 212.074L22.5727 212.071L22.5703 213.071L23.5703 213.074L23.5727 212.074ZM23.6015 200.227L23.6039 199.227L22.6039 199.225L22.6015 200.225L23.6015 200.227ZM67.2377 200.333L68.2377 200.336L68.2402 199.336L67.2402 199.333L67.2377 200.333ZM67.2114 211.18L23.5752 211.074L23.5703 213.074L67.2065 213.18L67.2114 211.18ZM24.5727 212.076L24.6015 200.23L22.6015 200.225L22.5727 212.071L24.5727 212.076ZM23.5991 201.227L67.2353 201.333L67.2402 199.333L23.6039 199.227L23.5991 201.227ZM66.2377 200.331L66.209 212.177L68.209 212.182L68.2377 200.336L66.2377 200.331ZM57.6492 218.078L57.6516 217.078L56.6516 217.075L56.6492 218.075L57.6492 218.078ZM67.1946 218.101L68.1946 218.103L68.197 217.103L67.197 217.101L67.1946 218.101ZM67.1025 256.027L67.1 257.027L68.1 257.029L68.1025 256.029L67.1025 256.027ZM57.557 256.004L56.557 256.001L56.5546 257.001L57.5546 257.004L57.557 256.004ZM57.5889 242.879L58.5889 242.881L58.5913 241.881L57.5913 241.879L57.5889 242.879ZM23.4981 242.796L22.4981 242.793L22.4957 243.793L23.4957 243.796L23.4981 242.796ZM23.5265 231.12L23.5289 230.12L22.5289 230.117L22.5265 231.117L23.5265 231.12ZM57.6173 231.203L57.6148 232.203L58.6148 232.205L58.6173 231.205L57.6173 231.203ZM57.6467 219.078L67.1921 219.101L67.197 217.101L57.6516 217.078L57.6467 219.078ZM66.1946 218.098L66.1025 256.024L68.1025 256.029L68.1946 218.103L66.1946 218.098ZM67.1049 255.027L57.5595 255.004L57.5546 257.004L67.1 257.027L67.1049 255.027ZM58.557 256.006L58.5889 242.881L56.5889 242.876L56.557 256.001L58.557 256.006ZM57.5913 241.879L23.5005 241.796L23.4957 243.796L57.5865 243.879L57.5913 241.879ZM24.4981 242.798L24.5265 231.122L22.5265 231.117L22.4981 242.793L24.4981 242.798ZM23.524 232.12L57.6148 232.203L57.6197 230.203L23.5289 230.12L23.524 232.12ZM58.6173 231.205L58.6491 218.08L56.6492 218.075L56.6173 231.2L58.6173 231.205ZM66.9963 299.741L66.9939 300.741L67.9939 300.743L67.9963 299.743L66.9963 299.741ZM23.36 299.635L22.36 299.632L22.3576 300.632L23.3576 300.635L23.36 299.635ZM23.3841 289.748L22.8194 288.923L22.3853 289.22L22.3841 289.746L23.3841 289.748ZM46.3484 274.037L46.9131 274.863L47.3471 274.566L47.3484 274.04L46.3484 274.037ZM46.349 273.781L47.349 273.784L47.3515 272.784L46.3515 272.781L46.349 273.781ZM23.423 273.726L22.423 273.723L22.4206 274.723L23.4205 274.726L23.423 273.726ZM23.4518 261.879L23.4542 260.879L22.4542 260.877L22.4518 261.877L23.4518 261.879ZM67.088 261.985L68.088 261.988L68.0904 260.988L67.0904 260.985L67.088 261.985ZM67.0636 272.042L67.6234 272.871L68.0623 272.574L68.0636 272.044L67.0636 272.042ZM44.185 287.498L43.6252 286.669L43.1863 286.966L43.185 287.495L44.185 287.498ZM44.1842 287.839L43.1842 287.836L43.1818 288.836L44.1818 288.839L44.1842 287.839ZM67.0251 287.894L68.0251 287.897L68.0275 286.897L67.0275 286.894L67.0251 287.894ZM66.9987 298.741L23.3625 298.635L23.3576 300.635L66.9939 300.741L66.9987 298.741ZM24.36 299.637L24.3841 289.751L22.3841 289.746L22.36 299.632L24.36 299.637ZM23.9487 290.574L46.9131 274.863L45.7838 273.212L22.8194 288.923L23.9487 290.574ZM47.3484 274.04L47.349 273.784L45.349 273.779L45.3484 274.035L47.3484 274.04ZM46.3515 272.781L23.4254 272.726L23.4205 274.726L46.3466 274.781L46.3515 272.781ZM24.423 273.728L24.4517 261.882L22.4518 261.877L22.423 273.723L24.423 273.728ZM23.4493 262.879L67.0856 262.985L67.0904 260.985L23.4542 260.879L23.4493 262.879ZM66.088 261.983L66.0636 272.04L68.0636 272.044L68.088 261.988L66.088 261.983ZM66.5038 271.213L43.6252 286.669L44.7448 288.327L67.6234 272.871L66.5038 271.213ZM43.185 287.495L43.1842 287.836L45.1842 287.841L45.185 287.5L43.185 287.495ZM44.1818 288.839L67.0226 288.894L67.0275 286.894L44.1866 286.839L44.1818 288.839ZM66.0251 287.892L65.9963 299.738L67.9963 299.743L68.0251 287.897L66.0251 287.892ZM23.3428 306.738L23.3452 305.738L22.3452 305.736L22.3428 306.736L23.3428 306.738ZM66.979 306.844L67.979 306.847L67.9815 305.847L66.9815 305.844L66.979 306.844ZM66.9026 338.293L66.9002 339.293L67.9002 339.296L67.9026 338.296L66.9026 338.293ZM57.3572 338.27L56.3572 338.268L56.3548 339.268L57.3548 339.27L57.3572 338.27ZM57.4048 318.668L58.4048 318.67L58.4073 317.67L57.4073 317.668L57.4048 318.668ZM49.9049 318.65L49.9073 317.65L48.9073 317.647L48.9049 318.647L49.9049 318.65ZM49.8612 336.633L49.8587 337.633L50.8587 337.635L50.8612 336.635L49.8612 336.633ZM40.3157 336.609L39.3157 336.607L39.3133 337.607L40.3133 337.609L40.3157 336.609ZM40.3594 318.626L41.3594 318.629L41.3618 317.629L40.3619 317.626L40.3594 318.626ZM32.8594 318.608L32.8619 317.608L31.8619 317.606L31.8594 318.606L32.8594 318.608ZM32.812 338.125L32.8096 339.125L33.8096 339.128L33.812 338.128L32.812 338.125ZM23.2666 338.102L22.2666 338.1L22.2642 339.1L23.2642 339.102L23.2666 338.102ZM23.3404 307.738L66.9766 307.844L66.9815 305.844L23.3452 305.738L23.3404 307.738ZM65.979 306.842L65.9026 338.291L67.9026 338.296L67.979 306.847L65.979 306.842ZM66.9051 337.293L57.3596 337.27L57.3548 339.27L66.9002 339.293L66.9051 337.293ZM58.3572 338.273L58.4048 318.67L56.4048 318.665L56.3572 338.268L58.3572 338.273ZM57.4073 317.668L49.9073 317.65L49.9024 319.65L57.4024 319.668L57.4073 317.668ZM48.9049 318.647L48.8612 336.63L50.8612 336.635L50.9048 318.652L48.9049 318.647ZM49.8636 335.633L40.3182 335.609L40.3133 337.609L49.8587 337.633L49.8636 335.633ZM41.3157 336.612L41.3594 318.629L39.3594 318.624L39.3157 336.607L41.3157 336.612ZM40.3619 317.626L32.8619 317.608L32.857 319.608L40.357 319.626L40.3619 317.626ZM31.8594 318.606L31.812 338.123L33.812 338.128L33.8594 318.611L31.8594 318.606ZM32.8145 337.125L23.269 337.102L23.2642 339.102L32.8096 339.125L32.8145 337.125ZM24.2666 338.104L24.3428 306.741L22.3428 306.736L22.2666 338.1L24.2666 338.104ZM53.1913 369.158L53.1139 368.161L52.1935 368.233L52.1913 369.156L53.1913 369.158ZM56.519 367.568L55.7581 366.919L55.7533 366.925L56.519 367.568ZM57.2824 360.283L56.3438 360.628L56.3474 360.638L57.2824 360.283ZM56.1147 358.576L56.713 357.774L56.713 357.774L56.1147 358.576ZM54.4116 357.996L54.3552 358.995L54.371 358.996L54.3869 358.996L54.4116 357.996ZM52.9833 358.27L52.5383 357.374L52.5202 357.383L52.5024 357.393L52.9833 358.27ZM51.8515 359.332L51.0359 358.754L51.0302 358.762L51.0246 358.77L51.8515 359.332ZM50.2212 363.867L51.1985 364.079L51.2002 364.07L50.2212 363.867ZM49.4454 367.444L48.4681 367.233L48.4676 367.235L49.4454 367.444ZM44.4343 377.851L43.7426 377.129L43.7381 377.134L44.4343 377.851ZM40.6359 380.25L40.2964 379.309L40.2881 379.312L40.6359 380.25ZM36.0317 381.048L36.0243 382.048L36.0378 382.048L36.0317 381.048ZM28.75 378.879L28.1668 379.691L28.1668 379.691L28.75 378.879ZM24.2264 372.774L25.1582 372.411L25.1575 372.409L24.2264 372.774ZM24.4014 353.364L23.4735 352.991L23.4729 352.992L24.4014 353.364ZM29.5949 346.814L29.0457 345.978L29.0399 345.982L29.5949 346.814ZM38.592 344.492L39.592 344.494L39.5945 343.49L38.5906 343.492L38.592 344.492ZM38.5647 355.742L38.6154 356.741L39.5624 356.693L39.5647 355.744L38.5647 355.742ZM35.1958 356.735L34.6492 355.898L34.6492 355.898L35.1958 356.735ZM33.123 359.244L32.2067 358.844L32.2048 358.848L33.123 359.244ZM32.8714 366.318L31.9317 366.66L31.9317 366.66L32.8714 366.318ZM34.1664 368.26L33.5423 369.041L33.5423 369.041L34.1664 368.26ZM36.0611 368.946L36.0386 369.946L36.0593 369.946L36.0799 369.946L36.0611 368.946ZM37.8098 368.29L37.1844 367.51L37.1725 367.519L37.1609 367.529L37.8098 368.29ZM39.1784 366.248L38.2616 365.848L38.2567 365.86L39.1784 366.248ZM40.3383 362.394L41.3146 362.611L41.3154 362.607L40.3383 362.394ZM41.2864 358.05L40.3096 357.835L40.3094 357.836L41.2864 358.05ZM45.506 348.919L44.761 348.252L44.7565 348.257L45.506 348.919ZM53.5893 345.636L53.5827 346.636L53.592 346.636L53.5893 345.636ZM60.8495 347.87L61.4364 347.06L61.4354 347.059L60.8495 347.87ZM65.7136 354.125L66.6312 353.727L66.6304 353.725L65.7136 354.125ZM65.6478 372.448L64.7398 372.029L64.7398 372.029L65.6478 372.448ZM60.6476 378.381L60.1052 377.541L60.0988 377.545L60.6476 378.381ZM53.1637 380.493L52.1637 380.491L52.1613 381.496L53.1663 381.493L53.1637 380.493ZM53.2686 370.155C54.9136 370.028 56.2882 369.398 57.2847 368.211L55.7533 366.925C55.1543 367.638 54.3104 368.068 53.1139 368.161L53.2686 370.155ZM57.2799 368.217C58.2971 367.024 58.7177 365.319 58.7226 363.291L56.7226 363.286C56.7182 365.093 56.3364 366.241 55.7581 366.919L57.2799 368.217ZM58.7226 363.291C58.7257 361.999 58.5722 360.864 58.2175 359.929L56.3474 360.638C56.5855 361.266 56.7254 362.135 56.7226 363.286L58.7226 363.291ZM58.221 359.938C57.893 359.046 57.407 358.293 56.713 357.774L55.5164 359.377C55.8149 359.6 56.1074 359.985 56.3439 360.628L58.221 359.938ZM56.713 357.774C56.045 357.276 55.2754 357.017 54.4362 356.997L54.3869 358.996C54.8261 359.007 55.1919 359.135 55.5164 359.377L56.713 357.774ZM54.468 356.998C53.7878 356.959 53.1362 357.077 52.5383 357.374L53.4284 359.165C53.6838 359.038 53.9843 358.974 54.3552 358.995L54.468 356.998ZM52.5024 357.393C51.9277 357.708 51.4437 358.179 51.0359 358.754L52.6671 359.911C52.9435 359.522 53.214 359.284 53.4643 359.147L52.5024 357.393ZM51.0246 358.77C50.6359 359.342 50.302 360.04 50.0116 360.844L51.8926 361.524C52.1456 360.823 52.4113 360.288 52.6784 359.895L51.0246 358.77ZM50.0116 360.844C49.7197 361.652 49.4644 362.594 49.2421 363.663L51.2002 364.07C51.4091 363.066 51.6411 362.22 51.8926 361.524L50.0116 360.844ZM49.2439 363.655L48.4681 367.233L50.4227 367.656L51.1985 364.079L49.2439 363.655ZM48.4676 367.235C47.9629 369.59 47.306 371.574 46.5084 373.199L48.304 374.08C49.1909 372.273 49.8935 370.126 50.4232 367.654L48.4676 367.235ZM46.5084 373.199C45.7072 374.832 44.7811 376.134 43.7426 377.129L45.1261 378.574C46.3656 377.386 47.4207 375.881 48.304 374.08L46.5084 373.199ZM43.7381 377.134C42.7101 378.131 41.5642 378.852 40.2964 379.309L40.9753 381.19C42.5225 380.632 43.9089 379.754 45.1306 378.569L43.7381 377.134ZM40.2881 379.312C39.001 379.79 37.5833 380.039 36.0255 380.048L36.0378 382.048C37.804 382.037 39.4557 381.754 40.9837 381.187L40.2881 379.312ZM36.039 380.048C33.3395 380.028 31.1227 379.351 29.3332 378.066L28.1668 379.691C30.3476 381.257 32.9853 382.026 36.0243 382.048L36.039 380.048ZM29.3332 378.066C27.5293 376.771 26.13 374.905 25.1582 372.411L23.2947 373.137C24.3839 375.932 26.0003 378.136 28.1668 379.691L29.3332 378.066ZM25.1575 372.409C24.1845 369.926 23.6853 366.895 23.6941 363.291L21.6941 363.286C21.6849 367.068 22.2073 370.361 23.2953 373.139L25.1575 372.409ZM23.6941 363.291C23.703 359.595 24.2579 356.417 25.33 353.735L23.4729 352.992C22.2869 355.959 21.7035 359.397 21.6941 363.286L23.6941 363.291ZM25.3293 353.737C26.3894 351.098 27.9978 349.082 30.1499 347.646L29.0399 345.982C26.5253 347.66 24.6714 350.01 23.4735 352.991L25.3293 353.737ZM30.1441 347.65C32.2867 346.242 35.08 345.497 38.5935 345.492L38.5906 343.492C34.8029 343.497 31.5982 344.301 29.0457 345.978L30.1441 347.65ZM37.5921 344.489L37.5647 355.739L39.5647 355.744L39.592 344.494L37.5921 344.489ZM38.514 354.743C37.0423 354.818 35.7384 355.187 34.6492 355.898L35.7424 357.572C36.4743 357.095 37.4164 356.801 38.6154 356.741L38.514 354.743ZM34.6492 355.898C33.562 356.607 32.7494 357.602 32.2067 358.844L34.0393 359.645C34.4393 358.73 35.0085 358.052 35.7424 357.572L34.6492 355.898ZM32.2048 358.848C31.6675 360.093 31.4143 361.533 31.4104 363.139L33.4104 363.144C33.4138 361.739 33.6356 360.58 34.0411 359.64L32.2048 358.848ZM31.4104 363.139C31.4071 364.478 31.5687 365.662 31.9317 366.66L33.8111 365.976C33.5532 365.267 33.4075 364.334 33.4104 363.144L31.4104 363.139ZM31.9317 366.66C32.2875 367.637 32.8105 368.456 33.5423 369.041L34.7906 367.478C34.4165 367.18 34.0762 366.704 33.8111 365.976L31.9317 366.66ZM33.5423 369.041C34.2671 369.62 35.1103 369.925 36.0386 369.946L36.0835 367.946C35.5915 367.935 35.1715 367.783 34.7906 367.478L33.5423 369.041ZM36.0799 369.946C36.9739 369.929 37.7807 369.629 38.4588 369.051L37.1609 367.529C36.8425 367.801 36.4835 367.938 36.0422 367.946L36.0799 369.946ZM38.4352 369.07C39.1312 368.512 39.6689 367.66 40.1001 366.635L38.2567 365.86C37.8879 366.736 37.5132 367.246 37.1844 367.51L38.4352 369.07ZM40.0952 366.647C40.5456 365.613 40.9488 364.259 41.3146 362.611L39.3621 362.177C39.0098 363.766 38.6397 364.981 38.2617 365.848L40.0952 366.647ZM41.3154 362.607L42.2634 358.263L40.3094 357.836L39.3613 362.181L41.3154 362.607ZM42.2632 358.264C43.0858 354.515 44.4337 351.644 46.2555 349.581L44.7565 348.257C42.6471 350.645 41.1819 353.861 40.3096 357.835L42.2632 358.264ZM46.251 349.586C48.0102 347.622 50.4132 346.615 53.5827 346.636L53.5959 344.636C49.9474 344.612 46.9614 345.795 44.761 348.252L46.251 349.586ZM53.592 346.636C56.1695 346.629 58.3793 347.318 60.2637 348.68L61.4354 347.059C59.1793 345.429 56.549 344.628 53.5866 344.636L53.592 346.636ZM60.2627 348.68C62.1848 350.073 63.7006 352.007 64.7968 354.524L66.6304 353.725C65.41 350.924 63.6831 348.689 61.4364 347.06L60.2627 348.68ZM64.796 354.522C65.8905 357.048 66.4466 359.97 66.4385 363.31L68.4385 363.314C68.4471 359.75 67.8533 356.548 66.6312 353.727L64.796 354.522ZM66.4385 363.31C66.4302 366.723 65.8519 369.62 64.7398 372.029L66.5558 372.867C67.8142 370.141 68.4296 366.947 68.4385 363.314L66.4385 363.31ZM64.7398 372.029C63.6254 374.444 62.0775 376.267 60.1052 377.541L61.1899 379.221C63.5142 377.721 65.2998 375.589 66.5558 372.867L64.7398 372.029ZM60.0988 377.545C58.1458 378.827 55.846 379.486 53.1612 379.493L53.1663 381.493C56.1918 381.486 58.8812 380.737 61.1964 379.217L60.0988 377.545ZM54.1637 380.496L54.1913 369.161L52.1913 369.156L52.1637 380.491L54.1637 380.496ZM53.0906 410.619L53.0132 409.622L52.0928 409.693L52.0906 410.617L53.0906 410.619ZM56.4183 409.029L55.6573 408.38L55.6526 408.386L56.4183 409.029ZM57.1817 401.744L56.2431 402.089L56.2467 402.098L57.1817 401.744ZM56.014 400.037L56.6123 399.235L56.6123 399.235L56.014 400.037ZM54.3109 399.457L54.2545 400.456L54.2703 400.456L54.2862 400.457L54.3109 399.457ZM52.8826 399.731L52.4376 398.835L52.4195 398.844L52.4017 398.854L52.8826 399.731ZM51.7508 400.793L50.9352 400.215L50.9295 400.223L50.9239 400.231L51.7508 400.793ZM50.1205 405.328L51.0978 405.54L51.0995 405.531L50.1205 405.328ZM49.3447 408.905L48.3674 408.693L48.3669 408.696L49.3447 408.905ZM44.3336 419.312L43.6419 418.59L43.6374 418.594L44.3336 419.312ZM40.5352 421.711L40.1957 420.77L40.1874 420.773L40.5352 421.711ZM35.931 422.509L35.9236 423.509L35.9371 423.509L35.931 422.509ZM28.6493 420.339L28.0661 421.152L28.0661 421.152L28.6493 420.339ZM24.1257 414.235L25.0575 413.872L25.0568 413.87L24.1257 414.235ZM24.3007 394.825L23.3728 394.452L23.3722 394.453L24.3007 394.825ZM29.4942 388.275L28.945 387.439L28.9392 387.443L29.4942 388.275ZM38.4913 385.953L39.4913 385.955L39.4938 384.951L38.4899 384.953L38.4913 385.953ZM38.464 397.203L38.5147 398.201L39.4617 398.153L39.464 397.205L38.464 397.203ZM35.0951 398.196L34.5485 397.359L34.5485 397.359L35.0951 398.196ZM33.0223 400.705L32.106 400.305L32.1041 400.309L33.0223 400.705ZM32.7707 407.778L31.831 408.12L31.831 408.12L32.7707 407.778ZM34.0657 409.72L33.4416 410.502L33.4416 410.502L34.0657 409.72ZM35.9603 410.407L35.9379 411.407L35.9586 411.407L35.9792 411.407L35.9603 410.407ZM37.7091 409.751L37.0837 408.97L37.0718 408.98L37.0602 408.99L37.7091 409.751ZM39.0777 407.708L38.1609 407.309L38.156 407.321L39.0777 407.708ZM40.2376 403.855L41.2139 404.071L41.2146 404.068L40.2376 403.855ZM41.1857 399.51L40.2089 399.296L40.2087 399.297L41.1857 399.51ZM45.4053 390.38L44.6603 389.713L44.6558 389.718L45.4053 390.38ZM53.4886 387.097L53.482 388.097L53.4913 388.097L53.4886 387.097ZM60.7488 389.331L61.3357 388.521L61.3347 388.52L60.7488 389.331ZM65.6129 395.585L66.5305 395.188L66.5297 395.186L65.6129 395.585ZM65.5471 413.909L64.6391 413.49L64.6391 413.49L65.5471 413.909ZM60.5469 419.842L60.0045 419.001L59.9981 419.006L60.5469 419.842ZM53.063 421.954L52.063 421.952L52.0606 422.957L53.0656 422.954L53.063 421.954ZM53.1679 411.616C54.8129 411.488 56.1875 410.859 57.184 409.672L55.6526 408.386C55.0536 409.099 54.2097 409.529 53.0132 409.622L53.1679 411.616ZM57.1792 409.678C58.1964 408.485 58.617 406.78 58.6219 404.752L56.6219 404.747C56.6175 406.553 56.2357 407.702 55.6574 408.38L57.1792 409.678ZM58.6219 404.752C58.625 403.459 58.4715 402.325 58.1168 401.389L56.2467 402.098C56.4848 402.727 56.6247 403.596 56.6219 404.747L58.6219 404.752ZM58.1203 401.399C57.7923 400.507 57.3063 399.753 56.6123 399.235L55.4157 400.838C55.7142 401.061 56.0067 401.446 56.2432 402.089L58.1203 401.399ZM56.6123 399.235C55.9443 398.737 55.1747 398.478 54.3355 398.457L54.2862 400.457C54.7254 400.468 55.0912 400.595 55.4157 400.838L56.6123 399.235ZM54.3673 398.459C53.6871 398.42 53.0355 398.538 52.4376 398.835L53.3277 400.626C53.5831 400.499 53.8836 400.435 54.2545 400.456L54.3673 398.459ZM52.4017 398.854C51.827 399.169 51.343 399.64 50.9352 400.215L52.5664 401.372C52.8427 400.982 53.1133 400.745 53.3636 400.607L52.4017 398.854ZM50.9239 400.231C50.5352 400.802 50.2013 401.501 49.9109 402.305L51.7919 402.984C52.0449 402.284 52.3106 401.748 52.5777 401.356L50.9239 400.231ZM49.9109 402.305C49.619 403.113 49.3637 404.055 49.1414 405.124L51.0995 405.531C51.3083 404.527 51.5404 403.681 51.7919 402.984L49.9109 402.305ZM49.1432 405.116L48.3674 408.693L50.322 409.117L51.0977 405.54L49.1432 405.116ZM48.3669 408.696C47.8621 411.051 47.2053 413.035 46.4077 414.66L48.2033 415.541C49.0902 413.733 49.7928 411.586 50.3225 409.115L48.3669 408.696ZM46.4077 414.66C45.6065 416.293 44.6804 417.595 43.6419 418.59L45.0253 420.034C46.2649 418.847 47.32 417.341 48.2033 415.541L46.4077 414.66ZM43.6374 418.594C42.6094 419.591 41.4635 420.312 40.1957 420.77L40.8746 422.651C42.4218 422.093 43.8082 421.215 45.0299 420.03L43.6374 418.594ZM40.1874 420.773C38.9003 421.251 37.4826 421.5 35.9248 421.509L35.9371 423.509C37.7033 423.498 39.355 423.215 40.883 422.648L40.1874 420.773ZM35.9383 421.509C33.2388 421.489 31.022 420.812 29.2325 419.527L28.0661 421.152C30.2469 422.718 32.8846 423.487 35.9236 423.509L35.9383 421.509ZM29.2325 419.527C27.4286 418.232 26.0293 416.366 25.0575 413.872L23.194 414.598C24.2832 417.393 25.8996 419.596 28.0661 421.152L29.2325 419.527ZM25.0568 413.87C24.0838 411.386 23.5846 408.356 23.5934 404.752L21.5934 404.747C21.5842 408.529 22.1066 411.822 23.1946 414.599L25.0568 413.87ZM23.5934 404.752C23.6023 401.055 24.1572 397.877 25.2293 395.196L23.3722 394.453C22.1862 397.42 21.6028 400.858 21.5934 404.747L23.5934 404.752ZM25.2286 395.197C26.2887 392.559 27.8971 390.542 30.0492 389.106L28.9392 387.443C26.4246 389.121 24.5707 391.47 23.3728 394.452L25.2286 395.197ZM30.0434 389.11C32.186 387.702 34.9793 386.958 38.4928 386.953L38.4899 384.953C34.7022 384.958 31.4975 385.762 28.945 387.439L30.0434 389.11ZM37.4913 385.95L37.464 397.2L39.464 397.205L39.4913 385.955L37.4913 385.95ZM38.4133 396.204C36.9416 396.279 35.6377 396.648 34.5485 397.359L35.6417 399.033C36.3736 398.556 37.3156 398.262 38.5147 398.201L38.4133 396.204ZM34.5485 397.359C33.4613 398.068 32.6487 399.063 32.106 400.305L33.9385 401.106C34.3386 400.19 34.9078 399.512 35.6417 399.033L34.5485 397.359ZM32.1041 400.309C31.5668 401.554 31.3136 402.994 31.3097 404.6L33.3097 404.605C33.3131 403.2 33.5349 402.041 33.9404 401.101L32.1041 400.309ZM31.3097 404.6C31.3064 405.939 31.468 407.123 31.831 408.12L33.7104 407.436C33.4525 406.728 33.3068 405.794 33.3097 404.605L31.3097 404.6ZM31.831 408.12C32.1868 409.098 32.7098 409.917 33.4416 410.502L34.6898 408.939C34.3158 408.64 33.9755 408.165 33.7104 407.436L31.831 408.12ZM33.4416 410.502C34.1664 411.081 35.0096 411.386 35.9379 411.407L35.9828 409.407C35.4908 409.396 35.0708 409.243 34.6898 408.939L33.4416 410.502ZM35.9792 411.407C36.8732 411.39 37.68 411.09 38.3581 410.511L37.0602 408.99C36.7418 409.261 36.3828 409.399 35.9415 409.407L35.9792 411.407ZM38.3345 410.531C39.0305 409.973 39.5682 409.121 39.9994 408.096L38.156 407.321C37.7872 408.197 37.4125 408.707 37.0837 408.97L38.3345 410.531ZM39.9945 408.108C40.4449 407.074 40.8481 405.72 41.2139 404.071L39.2614 403.638C38.909 405.226 38.539 406.441 38.161 407.309L39.9945 408.108ZM41.2146 404.068L42.1627 399.724L40.2087 399.297L39.2606 403.642L41.2146 404.068ZM42.1625 399.725C42.9851 395.976 44.333 393.105 46.1548 391.042L44.6558 389.718C42.5464 392.106 41.0812 395.321 40.2089 399.296L42.1625 399.725ZM46.1503 391.047C47.9095 389.082 50.3125 388.076 53.482 388.097L53.4952 386.097C49.8467 386.073 46.8607 387.256 44.6603 389.713L46.1503 391.047ZM53.4913 388.097C56.0688 388.09 58.2786 388.779 60.163 390.141L61.3347 388.52C59.0786 386.889 56.4483 386.089 53.4859 386.097L53.4913 388.097ZM60.162 390.14C62.0841 391.533 63.5999 393.468 64.6961 395.985L66.5297 395.186C65.3093 392.384 63.5824 390.149 61.3357 388.521L60.162 390.14ZM64.6953 395.983C65.7898 398.509 66.3459 401.431 66.3378 404.77L68.3378 404.775C68.3464 401.211 67.7526 398.008 66.5305 395.188L64.6953 395.983ZM66.3378 404.77C66.3295 408.184 65.7512 411.081 64.6391 413.49L66.4551 414.328C67.7135 411.601 68.3289 408.408 68.3378 404.775L66.3378 404.77ZM64.6391 413.49C63.5247 415.905 61.9768 417.728 60.0045 419.001L61.0892 420.682C63.4135 419.181 65.1991 417.05 66.4551 414.328L64.6391 413.49ZM59.9981 419.006C58.0451 420.288 55.7453 420.947 53.0605 420.954L53.0656 422.954C56.0911 422.946 58.7805 422.198 61.0957 420.678L59.9981 419.006ZM54.063 421.957L54.0906 410.621L52.0906 410.617L52.063 421.952L54.063 421.957Z"/></svg>